<mxfile host="app.diagrams.net" modified="2024-02-21T07:15:08.336Z" agent="Mozilla/5.0 (Windows NT 10.0; Win64; x64) AppleWebKit/537.36 (KHTML, like Gecko) Chrome/81.0.4044.92 Safari/537.36" version="23.0.2" etag="wr5EiAUC7bOX19VLDXo4" type="github">
  <diagram name="Page-1" id="MkIdi8otj3e1MXQuR69L">
    <mxGraphModel>
      <root>
        <mxCell id="0" />
        <mxCell id="1" parent="0" />
      </root>
    </mxGraphModel>
  </diagram>
</mxfile>
